<?xml version="1.0" encoding="UTF-8" standalone="no"?>
<!DOCTYPE svg PUBLIC "-//W3C//DTD SVG 1.1//EN"
 "http://www.w3.org/Graphics/SVG/1.1/DTD/svg11.dtd">
<!-- Generated by graphviz version 5.0.1 (20220820.1526)
 -->
<!-- Pages: 1 -->
<svg width="1504pt" height="327pt"
 viewBox="0.00 0.00 1504.00 326.50" xmlns="http://www.w3.org/2000/svg" xmlns:xlink="http://www.w3.org/1999/xlink">
<g id="graph0" class="graph" transform="scale(1 1) rotate(0) translate(4 322.5)">
<polygon fill="white" stroke="none" points="-4,4 -4,-322.5 1500,-322.5 1500,4 -4,4"/>
<!-- Node0 -->
<g id="node1" class="node">
<title>Node0</title>
<polygon fill="lightgrey" stroke="black" points="0,-0.5 0,-207.5 158,-207.5 158,-0.5 0,-0.5"/>
<text text-anchor="middle" x="79" y="-192.3" font-family="Times New Roman,serif" font-size="14.00">List pointer: 0x0061FF00</text>
<polyline fill="none" stroke="black" points="0,-184.5 158,-184.5"/>
<text text-anchor="middle" x="79" y="-169.3" font-family="Times New Roman,serif" font-size="14.00">Init capacity: 2</text>
<polyline fill="none" stroke="black" points="0,-161.5 158,-161.5"/>
<text text-anchor="middle" x="79" y="-146.3" font-family="Times New Roman,serif" font-size="14.00">Capacity: 8</text>
<polyline fill="none" stroke="black" points="0,-138.5 158,-138.5"/>
<text text-anchor="middle" x="79" y="-123.3" font-family="Times New Roman,serif" font-size="14.00">Size: 5</text>
<polyline fill="none" stroke="black" points="0,-115.5 158,-115.5"/>
<text text-anchor="middle" x="79" y="-100.3" font-family="Times New Roman,serif" font-size="14.00">Head: &#45;559038737</text>
<polyline fill="none" stroke="black" points="0,-92.5 158,-92.5"/>
<text text-anchor="middle" x="79" y="-77.3" font-family="Times New Roman,serif" font-size="14.00">Tail: &#45;559038737</text>
<polyline fill="none" stroke="black" points="0,-69.5 158,-69.5"/>
<text text-anchor="middle" x="79" y="-54.3" font-family="Times New Roman,serif" font-size="14.00">Free: &#45;1</text>
<polyline fill="none" stroke="black" points="0,-46.5 158,-46.5"/>
<text text-anchor="middle" x="79" y="-31.3" font-family="Times New Roman,serif" font-size="14.00">Last item: 5</text>
<polyline fill="none" stroke="black" points="0,-23.5 158,-23.5"/>
<text text-anchor="middle" x="79" y="-8.3" font-family="Times New Roman,serif" font-size="14.00">Poison: &#45;559038737</text>
</g>
<!-- Node1 -->
<g id="node2" class="node">
<title>Node1</title>
<polygon fill="#00e6e6" stroke="black" points="194,-58 194,-150 314,-150 314,-58 194,-58"/>
<text text-anchor="middle" x="254" y="-134.8" font-family="Times New Roman,serif" font-size="14.00">NUM: 1</text>
<polyline fill="none" stroke="black" points="194,-127 314,-127"/>
<text text-anchor="middle" x="254" y="-111.8" font-family="Times New Roman,serif" font-size="14.00">Value: &#45;559038737</text>
<polyline fill="none" stroke="black" points="194,-104 314,-104"/>
<text text-anchor="middle" x="254" y="-88.8" font-family="Times New Roman,serif" font-size="14.00">Next: &#45;559038737</text>
<polyline fill="none" stroke="black" points="194,-81 314,-81"/>
<text text-anchor="middle" x="254" y="-65.8" font-family="Times New Roman,serif" font-size="14.00">Prev: &#45;559038737</text>
</g>
<!-- Node0&#45;&gt;Node1 -->
<!-- Node -->
<g id="node3" class="node">
<title>Node</title>
<polygon fill="lightgrey" stroke="black" points="1442,-218 1442,-254 1496,-254 1496,-218 1442,-218"/>
<text text-anchor="middle" x="1469" y="-232.3" font-family="Times New Roman,serif" font-size="14.00">Node</text>
</g>
<!-- Node0&#45;&gt;Node -->
<g id="edge17" class="edge">
<title>Node0&#45;&gt;Node</title>
<path fill="none" stroke="black" d="M133,-207.73C133,-218.54 133,-225.68 133,-225.68 133,-225.68 1436.71,-225.68 1436.71,-225.68"/>
<polygon fill="black" stroke="black" points="1436.71,-227.43 1441.71,-225.68 1436.71,-223.93 1436.71,-227.43"/>
</g>
<!-- Node0&#45;&gt;Node -->
<g id="edge18" class="edge">
<title>Node0&#45;&gt;Node</title>
<path fill="none" stroke="black" d="M146,-207.55C146,-218 146,-224.86 146,-224.86 146,-224.86 1436.97,-224.86 1436.97,-224.86"/>
<polygon fill="black" stroke="black" points="1436.97,-226.61 1441.97,-224.86 1436.97,-223.11 1436.97,-226.61"/>
</g>
<!-- Node1&#45;&gt;Node -->
<g id="edge2" class="edge">
<title>Node1&#45;&gt;Node</title>
<path fill="none" stroke="black" d="M254,-150.07C254,-183.92 254,-224.05 254,-224.05 254,-224.05 1436.92,-224.05 1436.92,-224.05"/>
<polygon fill="black" stroke="black" points="1436.92,-225.8 1441.92,-224.05 1436.92,-222.3 1436.92,-225.8"/>
</g>
<!-- Node2 -->
<g id="node5" class="node">
<title>Node2</title>
<polygon fill="#00e6e6" stroke="black" points="350,-58 350,-150 470,-150 470,-58 350,-58"/>
<text text-anchor="middle" x="410" y="-134.8" font-family="Times New Roman,serif" font-size="14.00">NUM: 2</text>
<polyline fill="none" stroke="black" points="350,-127 470,-127"/>
<text text-anchor="middle" x="410" y="-111.8" font-family="Times New Roman,serif" font-size="14.00">Value: &#45;559038737</text>
<polyline fill="none" stroke="black" points="350,-104 470,-104"/>
<text text-anchor="middle" x="410" y="-88.8" font-family="Times New Roman,serif" font-size="14.00">Next: &#45;559038737</text>
<polyline fill="none" stroke="black" points="350,-81 470,-81"/>
<text text-anchor="middle" x="410" y="-65.8" font-family="Times New Roman,serif" font-size="14.00">Prev: &#45;559038737</text>
</g>
<!-- Node1&#45;&gt;Node2 -->
<!-- &#45;559038737 -->
<g id="node4" class="node">
<title>&#45;559038737</title>
<polygon fill="darkorange" stroke="darkorange" points="38,-227 38,-263 120,-263 120,-227 38,-227"/>
<text text-anchor="middle" x="79" y="-241.3" font-family="Times New Roman,serif" font-size="14.00">&#45;559038737</text>
</g>
<!-- Node2&#45;&gt;Node -->
<g id="edge4" class="edge">
<title>Node2&#45;&gt;Node</title>
<path fill="none" stroke="black" d="M410,-150.1C410,-183.65 410,-223.23 410,-223.23 410,-223.23 1436.76,-223.23 1436.76,-223.23"/>
<polygon fill="black" stroke="black" points="1436.76,-224.98 1441.76,-223.23 1436.76,-221.48 1436.76,-224.98"/>
</g>
<!-- Node3 -->
<g id="node6" class="node">
<title>Node3</title>
<polygon fill="#00e6e6" stroke="black" points="506,-58 506,-150 626,-150 626,-58 506,-58"/>
<text text-anchor="middle" x="566" y="-134.8" font-family="Times New Roman,serif" font-size="14.00">NUM: 3</text>
<polyline fill="none" stroke="black" points="506,-127 626,-127"/>
<text text-anchor="middle" x="566" y="-111.8" font-family="Times New Roman,serif" font-size="14.00">Value: &#45;559038737</text>
<polyline fill="none" stroke="black" points="506,-104 626,-104"/>
<text text-anchor="middle" x="566" y="-88.8" font-family="Times New Roman,serif" font-size="14.00">Next: &#45;559038737</text>
<polyline fill="none" stroke="black" points="506,-81 626,-81"/>
<text text-anchor="middle" x="566" y="-65.8" font-family="Times New Roman,serif" font-size="14.00">Prev: &#45;559038737</text>
</g>
<!-- Node2&#45;&gt;Node3 -->
<!-- Node3&#45;&gt;Node -->
<g id="edge6" class="edge">
<title>Node3&#45;&gt;Node</title>
<path fill="none" stroke="black" d="M566,-150.12C566,-183.37 566,-222.41 566,-222.41 566,-222.41 1436.98,-222.41 1436.98,-222.41"/>
<polygon fill="black" stroke="black" points="1436.98,-224.16 1441.98,-222.41 1436.97,-220.66 1436.98,-224.16"/>
</g>
<!-- Node4 -->
<g id="node7" class="node">
<title>Node4</title>
<polygon fill="#00e6e6" stroke="black" points="662,-58 662,-150 782,-150 782,-58 662,-58"/>
<text text-anchor="middle" x="722" y="-134.8" font-family="Times New Roman,serif" font-size="14.00">NUM: 4</text>
<polyline fill="none" stroke="black" points="662,-127 782,-127"/>
<text text-anchor="middle" x="722" y="-111.8" font-family="Times New Roman,serif" font-size="14.00">Value: &#45;559038737</text>
<polyline fill="none" stroke="black" points="662,-104 782,-104"/>
<text text-anchor="middle" x="722" y="-88.8" font-family="Times New Roman,serif" font-size="14.00">Next: &#45;559038737</text>
<polyline fill="none" stroke="black" points="662,-81 782,-81"/>
<text text-anchor="middle" x="722" y="-65.8" font-family="Times New Roman,serif" font-size="14.00">Prev: &#45;559038737</text>
</g>
<!-- Node3&#45;&gt;Node4 -->
<!-- Node4&#45;&gt;Node -->
<g id="edge8" class="edge">
<title>Node4&#45;&gt;Node</title>
<path fill="none" stroke="black" d="M722,-150.14C722,-183.08 722,-221.59 722,-221.59 722,-221.59 1436.97,-221.59 1436.97,-221.59"/>
<polygon fill="black" stroke="black" points="1436.97,-223.34 1441.97,-221.59 1436.97,-219.84 1436.97,-223.34"/>
</g>
<!-- Node5 -->
<g id="node8" class="node">
<title>Node5</title>
<polygon fill="#00e6e6" stroke="black" points="818,-58 818,-150 938,-150 938,-58 818,-58"/>
<text text-anchor="middle" x="878" y="-134.8" font-family="Times New Roman,serif" font-size="14.00">NUM: 5</text>
<polyline fill="none" stroke="black" points="818,-127 938,-127"/>
<text text-anchor="middle" x="878" y="-111.8" font-family="Times New Roman,serif" font-size="14.00">Value: &#45;559038737</text>
<polyline fill="none" stroke="black" points="818,-104 938,-104"/>
<text text-anchor="middle" x="878" y="-88.8" font-family="Times New Roman,serif" font-size="14.00">Next: &#45;559038737</text>
<polyline fill="none" stroke="black" points="818,-81 938,-81"/>
<text text-anchor="middle" x="878" y="-65.8" font-family="Times New Roman,serif" font-size="14.00">Prev: &#45;559038737</text>
</g>
<!-- Node4&#45;&gt;Node5 -->
<!-- Node5&#45;&gt;Node -->
<g id="edge10" class="edge">
<title>Node5&#45;&gt;Node</title>
<path fill="none" stroke="black" d="M878,-150.15C878,-182.79 878,-220.77 878,-220.77 878,-220.77 1436.68,-220.77 1436.68,-220.77"/>
<polygon fill="black" stroke="black" points="1436.68,-222.52 1441.68,-220.77 1436.68,-219.02 1436.68,-222.52"/>
</g>
<!-- Node6 -->
<g id="node9" class="node">
<title>Node6</title>
<polygon fill="#00e6e6" stroke="black" points="974,-58 974,-150 1094,-150 1094,-58 974,-58"/>
<text text-anchor="middle" x="1034" y="-134.8" font-family="Times New Roman,serif" font-size="14.00">NUM: 6</text>
<polyline fill="none" stroke="black" points="974,-127 1094,-127"/>
<text text-anchor="middle" x="1034" y="-111.8" font-family="Times New Roman,serif" font-size="14.00">Value: &#45;559038737</text>
<polyline fill="none" stroke="black" points="974,-104 1094,-104"/>
<text text-anchor="middle" x="1034" y="-88.8" font-family="Times New Roman,serif" font-size="14.00">Next: &#45;559038737</text>
<polyline fill="none" stroke="black" points="974,-81 1094,-81"/>
<text text-anchor="middle" x="1034" y="-65.8" font-family="Times New Roman,serif" font-size="14.00">Prev: &#45;559038737</text>
</g>
<!-- Node5&#45;&gt;Node6 -->
<!-- Node6&#45;&gt;Node -->
<g id="edge12" class="edge">
<title>Node6&#45;&gt;Node</title>
<path fill="none" stroke="black" d="M1034,-150.16C1034,-182.5 1034,-219.95 1034,-219.95 1034,-219.95 1436.79,-219.95 1436.79,-219.95"/>
<polygon fill="black" stroke="black" points="1436.79,-221.7 1441.79,-219.95 1436.79,-218.2 1436.79,-221.7"/>
</g>
<!-- Node7 -->
<g id="node10" class="node">
<title>Node7</title>
<polygon fill="#00e6e6" stroke="black" points="1130,-58 1130,-150 1250,-150 1250,-58 1130,-58"/>
<text text-anchor="middle" x="1190" y="-134.8" font-family="Times New Roman,serif" font-size="14.00">NUM: 7</text>
<polyline fill="none" stroke="black" points="1130,-127 1250,-127"/>
<text text-anchor="middle" x="1190" y="-111.8" font-family="Times New Roman,serif" font-size="14.00">Value: &#45;559038737</text>
<polyline fill="none" stroke="black" points="1130,-104 1250,-104"/>
<text text-anchor="middle" x="1190" y="-88.8" font-family="Times New Roman,serif" font-size="14.00">Next: &#45;559038737</text>
<polyline fill="none" stroke="black" points="1130,-81 1250,-81"/>
<text text-anchor="middle" x="1190" y="-65.8" font-family="Times New Roman,serif" font-size="14.00">Prev: &#45;559038737</text>
</g>
<!-- Node6&#45;&gt;Node7 -->
<!-- Node7&#45;&gt;Node -->
<g id="edge14" class="edge">
<title>Node7&#45;&gt;Node</title>
<path fill="none" stroke="black" d="M1190,-150.17C1190,-182.2 1190,-219.14 1190,-219.14 1190,-219.14 1436.99,-219.14 1436.99,-219.14"/>
<polygon fill="black" stroke="black" points="1436.99,-220.89 1441.99,-219.14 1436.99,-217.39 1436.99,-220.89"/>
</g>
<!-- Node8 -->
<g id="node11" class="node">
<title>Node8</title>
<polygon fill="#00e6e6" stroke="black" points="1286,-58 1286,-150 1406,-150 1406,-58 1286,-58"/>
<text text-anchor="middle" x="1346" y="-134.8" font-family="Times New Roman,serif" font-size="14.00">NUM: 8</text>
<polyline fill="none" stroke="black" points="1286,-127 1406,-127"/>
<text text-anchor="middle" x="1346" y="-111.8" font-family="Times New Roman,serif" font-size="14.00">Value: &#45;559038737</text>
<polyline fill="none" stroke="black" points="1286,-104 1406,-104"/>
<text text-anchor="middle" x="1346" y="-88.8" font-family="Times New Roman,serif" font-size="14.00">Next: &#45;559038737</text>
<polyline fill="none" stroke="black" points="1286,-81 1406,-81"/>
<text text-anchor="middle" x="1346" y="-65.8" font-family="Times New Roman,serif" font-size="14.00">Prev: &#45;559038737</text>
</g>
<!-- Node7&#45;&gt;Node8 -->
<!-- Node8&#45;&gt;Node -->
<g id="edge16" class="edge">
<title>Node8&#45;&gt;Node</title>
<path fill="none" stroke="black" d="M1346,-150.17C1346,-181.9 1346,-218.32 1346,-218.32 1346,-218.32 1436.7,-218.32 1436.7,-218.32"/>
<polygon fill="black" stroke="black" points="1436.7,-220.07 1441.7,-218.32 1436.7,-216.57 1436.7,-220.07"/>
</g>
<!-- &#45;1 -->
<g id="node12" class="node">
<title>&#45;1</title>
<polygon fill="darkviolet" stroke="darkviolet" points="52,-282 52,-318 106,-318 106,-282 52,-282"/>
<text text-anchor="middle" x="79" y="-296.3" font-family="Times New Roman,serif" font-size="14.00">&#45;1</text>
</g>
</g>
</svg>
