<?xml version="1.0" encoding="UTF-8" standalone="no"?>
<!DOCTYPE svg PUBLIC "-//W3C//DTD SVG 1.1//EN"
 "http://www.w3.org/Graphics/SVG/1.1/DTD/svg11.dtd">
<!-- Generated by graphviz version 5.0.1 (20220820.1526)
 -->
<!-- Pages: 1 -->
<svg width="420pt" height="216pt"
 viewBox="0.00 0.00 420.00 216.00" xmlns="http://www.w3.org/2000/svg" xmlns:xlink="http://www.w3.org/1999/xlink">
<g id="graph0" class="graph" transform="scale(1 1) rotate(0) translate(4 212)">
<polygon fill="white" stroke="none" points="-4,4 -4,-212 416,-212 416,4 -4,4"/>
<!-- Node0 -->
<g id="node1" class="node">
<title>Node0</title>
<polygon fill="lightgrey" stroke="black" points="0,-0.5 0,-207.5 158,-207.5 158,-0.5 0,-0.5"/>
<text text-anchor="middle" x="79" y="-192.3" font-family="Times New Roman,serif" font-size="14.00">List pointer: 0x0061FF00</text>
<polyline fill="none" stroke="black" points="0,-184.5 158,-184.5"/>
<text text-anchor="middle" x="79" y="-169.3" font-family="Times New Roman,serif" font-size="14.00">Init capacity: 2</text>
<polyline fill="none" stroke="black" points="0,-161.5 158,-161.5"/>
<text text-anchor="middle" x="79" y="-146.3" font-family="Times New Roman,serif" font-size="14.00">Capacity: 2</text>
<polyline fill="none" stroke="black" points="0,-138.5 158,-138.5"/>
<text text-anchor="middle" x="79" y="-123.3" font-family="Times New Roman,serif" font-size="14.00">Size: 1</text>
<polyline fill="none" stroke="black" points="0,-115.5 158,-115.5"/>
<text text-anchor="middle" x="79" y="-100.3" font-family="Times New Roman,serif" font-size="14.00">Head: 1</text>
<polyline fill="none" stroke="black" points="0,-92.5 158,-92.5"/>
<text text-anchor="middle" x="79" y="-77.3" font-family="Times New Roman,serif" font-size="14.00">Tail: 1</text>
<polyline fill="none" stroke="black" points="0,-69.5 158,-69.5"/>
<text text-anchor="middle" x="79" y="-54.3" font-family="Times New Roman,serif" font-size="14.00">Free: 2</text>
<polyline fill="none" stroke="black" points="0,-46.5 158,-46.5"/>
<text text-anchor="middle" x="79" y="-31.3" font-family="Times New Roman,serif" font-size="14.00">Is sorted: true (1)</text>
<polyline fill="none" stroke="black" points="0,-23.5 158,-23.5"/>
<text text-anchor="middle" x="79" y="-8.3" font-family="Times New Roman,serif" font-size="14.00">Poison: &#45;559038737</text>
</g>
<!-- Node1 -->
<g id="node2" class="node">
<title>Node1</title>
<polygon fill="#40c0c0" stroke="black" points="194,-58 194,-150 256,-150 256,-58 194,-58"/>
<text text-anchor="middle" x="225" y="-134.8" font-family="Times New Roman,serif" font-size="14.00">NUM: 1</text>
<polyline fill="none" stroke="black" points="194,-127 256,-127"/>
<text text-anchor="middle" x="225" y="-111.8" font-family="Times New Roman,serif" font-size="14.00">Value: 1</text>
<polyline fill="none" stroke="black" points="194,-104 256,-104"/>
<text text-anchor="middle" x="225" y="-88.8" font-family="Times New Roman,serif" font-size="14.00">Next: 0</text>
<polyline fill="none" stroke="black" points="194,-81 256,-81"/>
<text text-anchor="middle" x="225" y="-65.8" font-family="Times New Roman,serif" font-size="14.00">Prev: 0</text>
</g>
<!-- Node0&#45;&gt;Node1 -->
<!-- Node0&#45;&gt;Node1 -->
<g id="edge5" class="edge">
<title>Node0&#45;&gt;Node1</title>
<path fill="none" stroke="darkorange" d="M158.41,-80.75C158.41,-80.75 188.86,-80.75 188.86,-80.75"/>
<polygon fill="darkorange" stroke="darkorange" points="188.86,-82.5 193.86,-80.75 188.86,-79 188.86,-82.5"/>
</g>
<!-- Node2 -->
<g id="node3" class="node">
<title>Node2</title>
<polygon fill="#ffae5c" stroke="black" points="292,-58 292,-150 412,-150 412,-58 292,-58"/>
<text text-anchor="middle" x="352" y="-134.8" font-family="Times New Roman,serif" font-size="14.00">NUM: 2</text>
<polyline fill="none" stroke="black" points="292,-127 412,-127"/>
<text text-anchor="middle" x="352" y="-111.8" font-family="Times New Roman,serif" font-size="14.00">Value: &#45;559038737</text>
<polyline fill="none" stroke="black" points="292,-104 412,-104"/>
<text text-anchor="middle" x="352" y="-88.8" font-family="Times New Roman,serif" font-size="14.00">Next: 0</text>
<polyline fill="none" stroke="black" points="292,-81 412,-81"/>
<text text-anchor="middle" x="352" y="-65.8" font-family="Times New Roman,serif" font-size="14.00">Prev: &#45;1</text>
</g>
<!-- Node0&#45;&gt;Node2 -->
<g id="edge6" class="edge">
<title>Node0&#45;&gt;Node2</title>
<path fill="none" stroke="darkviolet" d="M158.01,-188.83C232.24,-188.83 332,-188.83 332,-188.83 332,-188.83 332,-155.39 332,-155.39"/>
<polygon fill="darkviolet" stroke="darkviolet" points="333.75,-155.39 332,-150.39 330.25,-155.39 333.75,-155.39"/>
</g>
<!-- Node1&#45;&gt;Node0 -->
<g id="edge2" class="edge">
<title>Node1&#45;&gt;Node0</title>
<path fill="none" stroke="darkorange" d="M193.68,-104C193.68,-104 163.26,-104 163.26,-104"/>
<polygon fill="darkorange" stroke="darkorange" points="163.26,-102.25 158.26,-104 163.26,-105.75 163.26,-102.25"/>
</g>
<!-- Node1&#45;&gt;Node2 -->
<!-- Node2&#45;&gt;Node0 -->
<g id="edge4" class="edge">
<title>Node2&#45;&gt;Node0</title>
<path fill="none" stroke="darkviolet" d="M372,-150.32C372,-161.19 372,-169.67 372,-169.67 372,-169.67 163.29,-169.67 163.29,-169.67"/>
<polygon fill="darkviolet" stroke="darkviolet" points="163.29,-167.92 158.29,-169.67 163.29,-171.42 163.29,-167.92"/>
</g>
</g>
</svg>
