<?xml version="1.0" encoding="UTF-8" standalone="no"?>
<!DOCTYPE svg PUBLIC "-//W3C//DTD SVG 1.1//EN"
 "http://www.w3.org/Graphics/SVG/1.1/DTD/svg11.dtd">
<!-- Generated by graphviz version 5.0.1 (20220820.1526)
 -->
<!-- Pages: 1 -->
<svg width="1240pt" height="216pt"
 viewBox="0.00 0.00 1240.00 216.00" xmlns="http://www.w3.org/2000/svg" xmlns:xlink="http://www.w3.org/1999/xlink">
<g id="graph0" class="graph" transform="scale(1 1) rotate(0) translate(4 212)">
<polygon fill="white" stroke="none" points="-4,4 -4,-212 1236,-212 1236,4 -4,4"/>
<!-- Node0 -->
<g id="node1" class="node">
<title>Node0</title>
<polygon fill="lightgrey" stroke="black" points="0,-0.5 0,-207.5 158,-207.5 158,-0.5 0,-0.5"/>
<text text-anchor="middle" x="79" y="-192.3" font-family="Times New Roman,serif" font-size="14.00">List pointer: 0x0061FF00</text>
<polyline fill="none" stroke="black" points="0,-184.5 158,-184.5"/>
<text text-anchor="middle" x="79" y="-169.3" font-family="Times New Roman,serif" font-size="14.00">Init capacity: 2</text>
<polyline fill="none" stroke="black" points="0,-161.5 158,-161.5"/>
<text text-anchor="middle" x="79" y="-146.3" font-family="Times New Roman,serif" font-size="14.00">Capacity: 8</text>
<polyline fill="none" stroke="black" points="0,-138.5 158,-138.5"/>
<text text-anchor="middle" x="79" y="-123.3" font-family="Times New Roman,serif" font-size="14.00">Size: 5</text>
<polyline fill="none" stroke="black" points="0,-115.5 158,-115.5"/>
<text text-anchor="middle" x="79" y="-100.3" font-family="Times New Roman,serif" font-size="14.00">Head: 2</text>
<polyline fill="none" stroke="black" points="0,-92.5 158,-92.5"/>
<text text-anchor="middle" x="79" y="-77.3" font-family="Times New Roman,serif" font-size="14.00">Tail: 4</text>
<polyline fill="none" stroke="black" points="0,-69.5 158,-69.5"/>
<text text-anchor="middle" x="79" y="-54.3" font-family="Times New Roman,serif" font-size="14.00">Free: 1</text>
<polyline fill="none" stroke="black" points="0,-46.5 158,-46.5"/>
<text text-anchor="middle" x="79" y="-31.3" font-family="Times New Roman,serif" font-size="14.00">Is sorted: true (1)</text>
<polyline fill="none" stroke="black" points="0,-23.5 158,-23.5"/>
<text text-anchor="middle" x="79" y="-8.3" font-family="Times New Roman,serif" font-size="14.00">Poison: &#45;559038737</text>
</g>
<!-- Node1 -->
<g id="node2" class="node">
<title>Node1</title>
<polygon fill="#ffae5c" stroke="black" points="194,-58 194,-150 314,-150 314,-58 194,-58"/>
<text text-anchor="middle" x="254" y="-134.8" font-family="Times New Roman,serif" font-size="14.00">NUM: 1</text>
<polyline fill="none" stroke="black" points="194,-127 314,-127"/>
<text text-anchor="middle" x="254" y="-111.8" font-family="Times New Roman,serif" font-size="14.00">Value: &#45;559038737</text>
<polyline fill="none" stroke="black" points="194,-104 314,-104"/>
<text text-anchor="middle" x="254" y="-88.8" font-family="Times New Roman,serif" font-size="14.00">Next: 5</text>
<polyline fill="none" stroke="black" points="194,-81 314,-81"/>
<text text-anchor="middle" x="254" y="-65.8" font-family="Times New Roman,serif" font-size="14.00">Prev: &#45;1</text>
</g>
<!-- Node0&#45;&gt;Node1 -->
<!-- Node0&#45;&gt;Node1 -->
<g id="edge18" class="edge">
<title>Node0&#45;&gt;Node1</title>
<path fill="none" stroke="darkviolet" d="M158.05,-119.5C158.05,-119.5 188.92,-119.5 188.92,-119.5"/>
<polygon fill="darkviolet" stroke="darkviolet" points="188.92,-121.25 193.92,-119.5 188.92,-117.75 188.92,-121.25"/>
</g>
<!-- Node2 -->
<g id="node4" class="node">
<title>Node2</title>
<polygon fill="#40c0c0" stroke="black" points="350,-58 350,-150 412,-150 412,-58 350,-58"/>
<text text-anchor="middle" x="381" y="-134.8" font-family="Times New Roman,serif" font-size="14.00">NUM: 2</text>
<polyline fill="none" stroke="black" points="350,-127 412,-127"/>
<text text-anchor="middle" x="381" y="-111.8" font-family="Times New Roman,serif" font-size="14.00">Value: 3</text>
<polyline fill="none" stroke="black" points="350,-104 412,-104"/>
<text text-anchor="middle" x="381" y="-88.8" font-family="Times New Roman,serif" font-size="14.00">Next: 3</text>
<polyline fill="none" stroke="black" points="350,-81 412,-81"/>
<text text-anchor="middle" x="381" y="-65.8" font-family="Times New Roman,serif" font-size="14.00">Prev: 0</text>
</g>
<!-- Node0&#45;&gt;Node2 -->
<g id="edge17" class="edge">
<title>Node0&#45;&gt;Node2</title>
<path fill="none" stroke="darkorange" d="M158.35,-46C247.82,-46 381,-46 381,-46 381,-46 381,-52.74 381,-52.74"/>
<polygon fill="darkorange" stroke="darkorange" points="379.25,-52.74 381,-57.74 382.75,-52.74 379.25,-52.74"/>
</g>
<!-- Node5 -->
<g id="node3" class="node">
<title>Node5</title>
<polygon fill="#ffae5c" stroke="black" points="644,-58 644,-150 764,-150 764,-58 644,-58"/>
<text text-anchor="middle" x="704" y="-134.8" font-family="Times New Roman,serif" font-size="14.00">NUM: 5</text>
<polyline fill="none" stroke="black" points="644,-127 764,-127"/>
<text text-anchor="middle" x="704" y="-111.8" font-family="Times New Roman,serif" font-size="14.00">Value: &#45;559038737</text>
<polyline fill="none" stroke="black" points="644,-104 764,-104"/>
<text text-anchor="middle" x="704" y="-88.8" font-family="Times New Roman,serif" font-size="14.00">Next: 6</text>
<polyline fill="none" stroke="black" points="644,-81 764,-81"/>
<text text-anchor="middle" x="704" y="-65.8" font-family="Times New Roman,serif" font-size="14.00">Prev: &#45;1</text>
</g>
<!-- Node1&#45;&gt;Node5 -->
<g id="edge2" class="edge">
<title>Node1&#45;&gt;Node5</title>
<path fill="none" stroke="darkviolet" d="M254,-57.64C254,-44.89 254,-34.5 254,-34.5 254,-34.5 704,-34.5 704,-34.5 704,-34.5 704,-52.64 704,-52.64"/>
<polygon fill="darkviolet" stroke="darkviolet" points="702.25,-52.64 704,-57.64 705.75,-52.64 702.25,-52.64"/>
</g>
<!-- Node1&#45;&gt;Node2 -->
<!-- Node6 -->
<g id="node7" class="node">
<title>Node6</title>
<polygon fill="#ffae5c" stroke="black" points="800,-58 800,-150 920,-150 920,-58 800,-58"/>
<text text-anchor="middle" x="860" y="-134.8" font-family="Times New Roman,serif" font-size="14.00">NUM: 6</text>
<polyline fill="none" stroke="black" points="800,-127 920,-127"/>
<text text-anchor="middle" x="860" y="-111.8" font-family="Times New Roman,serif" font-size="14.00">Value: &#45;559038737</text>
<polyline fill="none" stroke="black" points="800,-104 920,-104"/>
<text text-anchor="middle" x="860" y="-88.8" font-family="Times New Roman,serif" font-size="14.00">Next: 7</text>
<polyline fill="none" stroke="black" points="800,-81 920,-81"/>
<text text-anchor="middle" x="860" y="-65.8" font-family="Times New Roman,serif" font-size="14.00">Prev: &#45;1</text>
</g>
<!-- Node5&#45;&gt;Node6 -->
<g id="edge10" class="edge">
<title>Node5&#45;&gt;Node6</title>
<path fill="none" stroke="darkviolet" d="M764.31,-119.5C764.31,-119.5 794.85,-119.5 794.85,-119.5"/>
<polygon fill="darkviolet" stroke="darkviolet" points="794.85,-121.25 799.85,-119.5 794.85,-117.75 794.85,-121.25"/>
</g>
<!-- Node5&#45;&gt;Node6 -->
<!-- Node3 -->
<g id="node5" class="node">
<title>Node3</title>
<polygon fill="#40c0c0" stroke="black" points="448,-58 448,-150 510,-150 510,-58 448,-58"/>
<text text-anchor="middle" x="479" y="-134.8" font-family="Times New Roman,serif" font-size="14.00">NUM: 3</text>
<polyline fill="none" stroke="black" points="448,-127 510,-127"/>
<text text-anchor="middle" x="479" y="-111.8" font-family="Times New Roman,serif" font-size="14.00">Value: 1</text>
<polyline fill="none" stroke="black" points="448,-104 510,-104"/>
<text text-anchor="middle" x="479" y="-88.8" font-family="Times New Roman,serif" font-size="14.00">Next: 4</text>
<polyline fill="none" stroke="black" points="448,-81 510,-81"/>
<text text-anchor="middle" x="479" y="-65.8" font-family="Times New Roman,serif" font-size="14.00">Prev: 2</text>
</g>
<!-- Node2&#45;&gt;Node3 -->
<g id="edge4" class="edge">
<title>Node2&#45;&gt;Node3</title>
<path fill="none" stroke="darkorange" d="M412.01,-119.5C412.01,-119.5 442.86,-119.5 442.86,-119.5"/>
<polygon fill="darkorange" stroke="darkorange" points="442.86,-121.25 447.86,-119.5 442.86,-117.75 442.86,-121.25"/>
</g>
<!-- Node2&#45;&gt;Node3 -->
<!-- Node4 -->
<g id="node6" class="node">
<title>Node4</title>
<polygon fill="#40c0c0" stroke="black" points="546,-58 546,-150 608,-150 608,-58 546,-58"/>
<text text-anchor="middle" x="577" y="-134.8" font-family="Times New Roman,serif" font-size="14.00">NUM: 4</text>
<polyline fill="none" stroke="black" points="546,-127 608,-127"/>
<text text-anchor="middle" x="577" y="-111.8" font-family="Times New Roman,serif" font-size="14.00">Value: 4</text>
<polyline fill="none" stroke="black" points="546,-104 608,-104"/>
<text text-anchor="middle" x="577" y="-88.8" font-family="Times New Roman,serif" font-size="14.00">Next: 0</text>
<polyline fill="none" stroke="black" points="546,-81 608,-81"/>
<text text-anchor="middle" x="577" y="-65.8" font-family="Times New Roman,serif" font-size="14.00">Prev: 3</text>
</g>
<!-- Node3&#45;&gt;Node4 -->
<g id="edge6" class="edge">
<title>Node3&#45;&gt;Node4</title>
<path fill="none" stroke="darkorange" d="M510.01,-88.5C510.01,-88.5 540.86,-88.5 540.86,-88.5"/>
<polygon fill="darkorange" stroke="darkorange" points="540.86,-90.25 545.86,-88.5 540.86,-86.75 540.86,-90.25"/>
</g>
<!-- Node3&#45;&gt;Node4 -->
<!-- Node4&#45;&gt;Node0 -->
<g id="edge8" class="edge">
<title>Node4&#45;&gt;Node0</title>
<path fill="none" stroke="darkorange" d="M577,-57.82C577,-39.63 577,-23 577,-23 577,-23 163.18,-23 163.18,-23"/>
<polygon fill="darkorange" stroke="darkorange" points="163.18,-21.25 158.18,-23 163.18,-24.75 163.18,-21.25"/>
</g>
<!-- Node4&#45;&gt;Node5 -->
<!-- Node7 -->
<g id="node8" class="node">
<title>Node7</title>
<polygon fill="#ffae5c" stroke="black" points="956,-58 956,-150 1076,-150 1076,-58 956,-58"/>
<text text-anchor="middle" x="1016" y="-134.8" font-family="Times New Roman,serif" font-size="14.00">NUM: 7</text>
<polyline fill="none" stroke="black" points="956,-127 1076,-127"/>
<text text-anchor="middle" x="1016" y="-111.8" font-family="Times New Roman,serif" font-size="14.00">Value: &#45;559038737</text>
<polyline fill="none" stroke="black" points="956,-104 1076,-104"/>
<text text-anchor="middle" x="1016" y="-88.8" font-family="Times New Roman,serif" font-size="14.00">Next: 8</text>
<polyline fill="none" stroke="black" points="956,-81 1076,-81"/>
<text text-anchor="middle" x="1016" y="-65.8" font-family="Times New Roman,serif" font-size="14.00">Prev: &#45;1</text>
</g>
<!-- Node6&#45;&gt;Node7 -->
<g id="edge12" class="edge">
<title>Node6&#45;&gt;Node7</title>
<path fill="none" stroke="darkviolet" d="M920.31,-88.5C920.31,-88.5 950.85,-88.5 950.85,-88.5"/>
<polygon fill="darkviolet" stroke="darkviolet" points="950.85,-90.25 955.85,-88.5 950.85,-86.75 950.85,-90.25"/>
</g>
<!-- Node6&#45;&gt;Node7 -->
<!-- Node8 -->
<g id="node9" class="node">
<title>Node8</title>
<polygon fill="#ffae5c" stroke="black" points="1112,-58 1112,-150 1232,-150 1232,-58 1112,-58"/>
<text text-anchor="middle" x="1172" y="-134.8" font-family="Times New Roman,serif" font-size="14.00">NUM: 8</text>
<polyline fill="none" stroke="black" points="1112,-127 1232,-127"/>
<text text-anchor="middle" x="1172" y="-111.8" font-family="Times New Roman,serif" font-size="14.00">Value: &#45;559038737</text>
<polyline fill="none" stroke="black" points="1112,-104 1232,-104"/>
<text text-anchor="middle" x="1172" y="-88.8" font-family="Times New Roman,serif" font-size="14.00">Next: 0</text>
<polyline fill="none" stroke="black" points="1112,-81 1232,-81"/>
<text text-anchor="middle" x="1172" y="-65.8" font-family="Times New Roman,serif" font-size="14.00">Prev: &#45;1</text>
</g>
<!-- Node7&#45;&gt;Node8 -->
<g id="edge14" class="edge">
<title>Node7&#45;&gt;Node8</title>
<path fill="none" stroke="darkviolet" d="M1076.31,-88.5C1076.31,-88.5 1106.85,-88.5 1106.85,-88.5"/>
<polygon fill="darkviolet" stroke="darkviolet" points="1106.85,-90.25 1111.85,-88.5 1106.85,-86.75 1106.85,-90.25"/>
</g>
<!-- Node7&#45;&gt;Node8 -->
<!-- Node8&#45;&gt;Node0 -->
<g id="edge16" class="edge">
<title>Node8&#45;&gt;Node0</title>
<path fill="none" stroke="darkviolet" d="M1172,-57.75C1172,-34.62 1172,-11.5 1172,-11.5 1172,-11.5 163.05,-11.5 163.05,-11.5"/>
<polygon fill="darkviolet" stroke="darkviolet" points="163.05,-9.75 158.05,-11.5 163.05,-13.25 163.05,-9.75"/>
</g>
</g>
</svg>
