<?xml version="1.0" encoding="UTF-8" standalone="no"?>
<!DOCTYPE svg PUBLIC "-//W3C//DTD SVG 1.1//EN"
 "http://www.w3.org/Graphics/SVG/1.1/DTD/svg11.dtd">
<!-- Generated by graphviz version 5.0.1 (20220820.1526)
 -->
<!-- Pages: 1 -->
<svg width="616pt" height="216pt"
 viewBox="0.00 0.00 616.00 216.00" xmlns="http://www.w3.org/2000/svg" xmlns:xlink="http://www.w3.org/1999/xlink">
<g id="graph0" class="graph" transform="scale(1 1) rotate(0) translate(4 212)">
<polygon fill="white" stroke="none" points="-4,4 -4,-212 612,-212 612,4 -4,4"/>
<!-- Node0 -->
<g id="node1" class="node">
<title>Node0</title>
<polygon fill="lightgrey" stroke="black" points="0,-0.5 0,-207.5 158,-207.5 158,-0.5 0,-0.5"/>
<text text-anchor="middle" x="79" y="-192.3" font-family="Times New Roman,serif" font-size="14.00">List pointer: 0x0061FF00</text>
<polyline fill="none" stroke="black" points="0,-184.5 158,-184.5"/>
<text text-anchor="middle" x="79" y="-169.3" font-family="Times New Roman,serif" font-size="14.00">Init capacity: 2</text>
<polyline fill="none" stroke="black" points="0,-161.5 158,-161.5"/>
<text text-anchor="middle" x="79" y="-146.3" font-family="Times New Roman,serif" font-size="14.00">Capacity: 4</text>
<polyline fill="none" stroke="black" points="0,-138.5 158,-138.5"/>
<text text-anchor="middle" x="79" y="-123.3" font-family="Times New Roman,serif" font-size="14.00">Size: 3</text>
<polyline fill="none" stroke="black" points="0,-115.5 158,-115.5"/>
<text text-anchor="middle" x="79" y="-100.3" font-family="Times New Roman,serif" font-size="14.00">Head: 2</text>
<polyline fill="none" stroke="black" points="0,-92.5 158,-92.5"/>
<text text-anchor="middle" x="79" y="-77.3" font-family="Times New Roman,serif" font-size="14.00">Tail: 1</text>
<polyline fill="none" stroke="black" points="0,-69.5 158,-69.5"/>
<text text-anchor="middle" x="79" y="-54.3" font-family="Times New Roman,serif" font-size="14.00">Free: 4</text>
<polyline fill="none" stroke="black" points="0,-46.5 158,-46.5"/>
<text text-anchor="middle" x="79" y="-31.3" font-family="Times New Roman,serif" font-size="14.00">Is sorted: false (0)</text>
<polyline fill="none" stroke="black" points="0,-23.5 158,-23.5"/>
<text text-anchor="middle" x="79" y="-8.3" font-family="Times New Roman,serif" font-size="14.00">Poison: &#45;559038737</text>
</g>
<!-- Node1 -->
<g id="node2" class="node">
<title>Node1</title>
<polygon fill="#40c0c0" stroke="black" points="194,-58 194,-150 256,-150 256,-58 194,-58"/>
<text text-anchor="middle" x="225" y="-134.8" font-family="Times New Roman,serif" font-size="14.00">NUM: 1</text>
<polyline fill="none" stroke="black" points="194,-127 256,-127"/>
<text text-anchor="middle" x="225" y="-111.8" font-family="Times New Roman,serif" font-size="14.00">Value: 1</text>
<polyline fill="none" stroke="black" points="194,-104 256,-104"/>
<text text-anchor="middle" x="225" y="-88.8" font-family="Times New Roman,serif" font-size="14.00">Next: 0</text>
<polyline fill="none" stroke="black" points="194,-81 256,-81"/>
<text text-anchor="middle" x="225" y="-65.8" font-family="Times New Roman,serif" font-size="14.00">Prev: 3</text>
</g>
<!-- Node0&#45;&gt;Node1 -->
<!-- Node2 -->
<g id="node3" class="node">
<title>Node2</title>
<polygon fill="#40c0c0" stroke="black" points="292,-58 292,-150 354,-150 354,-58 292,-58"/>
<text text-anchor="middle" x="323" y="-134.8" font-family="Times New Roman,serif" font-size="14.00">NUM: 2</text>
<polyline fill="none" stroke="black" points="292,-127 354,-127"/>
<text text-anchor="middle" x="323" y="-111.8" font-family="Times New Roman,serif" font-size="14.00">Value: 2</text>
<polyline fill="none" stroke="black" points="292,-104 354,-104"/>
<text text-anchor="middle" x="323" y="-88.8" font-family="Times New Roman,serif" font-size="14.00">Next: 3</text>
<polyline fill="none" stroke="black" points="292,-81 354,-81"/>
<text text-anchor="middle" x="323" y="-65.8" font-family="Times New Roman,serif" font-size="14.00">Prev: 0</text>
</g>
<!-- Node0&#45;&gt;Node2 -->
<g id="edge9" class="edge">
<title>Node0&#45;&gt;Node2</title>
<path fill="none" stroke="darkorange" d="M158.22,-38.33C229.47,-38.33 323,-38.33 323,-38.33 323,-38.33 323,-52.68 323,-52.68"/>
<polygon fill="darkorange" stroke="darkorange" points="321.25,-52.68 323,-57.68 324.75,-52.68 321.25,-52.68"/>
</g>
<!-- Node4 -->
<g id="node5" class="node">
<title>Node4</title>
<polygon fill="#ffae5c" stroke="black" points="488,-58 488,-150 608,-150 608,-58 488,-58"/>
<text text-anchor="middle" x="548" y="-134.8" font-family="Times New Roman,serif" font-size="14.00">NUM: 4</text>
<polyline fill="none" stroke="black" points="488,-127 608,-127"/>
<text text-anchor="middle" x="548" y="-111.8" font-family="Times New Roman,serif" font-size="14.00">Value: &#45;559038737</text>
<polyline fill="none" stroke="black" points="488,-104 608,-104"/>
<text text-anchor="middle" x="548" y="-88.8" font-family="Times New Roman,serif" font-size="14.00">Next: 0</text>
<polyline fill="none" stroke="black" points="488,-81 608,-81"/>
<text text-anchor="middle" x="548" y="-65.8" font-family="Times New Roman,serif" font-size="14.00">Prev: &#45;1</text>
</g>
<!-- Node0&#45;&gt;Node4 -->
<g id="edge10" class="edge">
<title>Node0&#45;&gt;Node4</title>
<path fill="none" stroke="darkviolet" d="M158.03,-19.17C291.69,-19.17 548,-19.17 548,-19.17 548,-19.17 548,-52.61 548,-52.61"/>
<polygon fill="darkviolet" stroke="darkviolet" points="546.25,-52.61 548,-57.61 549.75,-52.61 546.25,-52.61"/>
</g>
<!-- Node1&#45;&gt;Node0 -->
<g id="edge2" class="edge">
<title>Node1&#45;&gt;Node0</title>
<path fill="none" stroke="darkorange" d="M193.68,-88.5C193.68,-88.5 163.26,-88.5 163.26,-88.5"/>
<polygon fill="darkorange" stroke="darkorange" points="163.26,-86.75 158.26,-88.5 163.26,-90.25 163.26,-86.75"/>
</g>
<!-- Node1&#45;&gt;Node2 -->
<!-- Node3 -->
<g id="node4" class="node">
<title>Node3</title>
<polygon fill="#40c0c0" stroke="black" points="390,-58 390,-150 452,-150 452,-58 390,-58"/>
<text text-anchor="middle" x="421" y="-134.8" font-family="Times New Roman,serif" font-size="14.00">NUM: 3</text>
<polyline fill="none" stroke="black" points="390,-127 452,-127"/>
<text text-anchor="middle" x="421" y="-111.8" font-family="Times New Roman,serif" font-size="14.00">Value: 3</text>
<polyline fill="none" stroke="black" points="390,-104 452,-104"/>
<text text-anchor="middle" x="421" y="-88.8" font-family="Times New Roman,serif" font-size="14.00">Next: 1</text>
<polyline fill="none" stroke="black" points="390,-81 452,-81"/>
<text text-anchor="middle" x="421" y="-65.8" font-family="Times New Roman,serif" font-size="14.00">Prev: 2</text>
</g>
<!-- Node2&#45;&gt;Node3 -->
<g id="edge4" class="edge">
<title>Node2&#45;&gt;Node3</title>
<path fill="none" stroke="darkorange" d="M354.01,-119.5C354.01,-119.5 384.86,-119.5 384.86,-119.5"/>
<polygon fill="darkorange" stroke="darkorange" points="384.86,-121.25 389.86,-119.5 384.86,-117.75 384.86,-121.25"/>
</g>
<!-- Node2&#45;&gt;Node3 -->
<!-- Node3&#45;&gt;Node1 -->
<g id="edge6" class="edge">
<title>Node3&#45;&gt;Node1</title>
<path fill="none" stroke="darkorange" d="M421,-150.32C421,-161.19 421,-169.67 421,-169.67 421,-169.67 225,-169.67 225,-169.67 225,-169.67 225,-155.32 225,-155.32"/>
<polygon fill="darkorange" stroke="darkorange" points="226.75,-155.32 225,-150.32 223.25,-155.32 226.75,-155.32"/>
</g>
<!-- Node3&#45;&gt;Node4 -->
<!-- Node4&#45;&gt;Node0 -->
<g id="edge8" class="edge">
<title>Node4&#45;&gt;Node0</title>
<path fill="none" stroke="darkviolet" d="M548,-150.39C548,-170.19 548,-188.83 548,-188.83 548,-188.83 163.03,-188.83 163.03,-188.83"/>
<polygon fill="darkviolet" stroke="darkviolet" points="163.03,-187.08 158.03,-188.83 163.03,-190.58 163.03,-187.08"/>
</g>
</g>
</svg>
