<?xml version="1.0" encoding="UTF-8" standalone="no"?>
<!DOCTYPE svg PUBLIC "-//W3C//DTD SVG 1.1//EN"
 "http://www.w3.org/Graphics/SVG/1.1/DTD/svg11.dtd">
<!-- Generated by graphviz version 5.0.1 (20220820.1526)
 -->
<!-- Pages: 1 -->
<svg width="1102pt" height="309pt"
 viewBox="0.00 0.00 1102.00 308.50" xmlns="http://www.w3.org/2000/svg" xmlns:xlink="http://www.w3.org/1999/xlink">
<g id="graph0" class="graph" transform="scale(1 1) rotate(0) translate(4 304.5)">
<polygon fill="white" stroke="none" points="-4,4 -4,-304.5 1098,-304.5 1098,4 -4,4"/>
<!-- Node0 -->
<g id="node1" class="node">
<title>Node0</title>
<polygon fill="lightgrey" stroke="black" points="0,-93 0,-300 158,-300 158,-93 0,-93"/>
<text text-anchor="middle" x="79" y="-284.8" font-family="Times New Roman,serif" font-size="14.00">List pointer: 0x0061FF00</text>
<polyline fill="none" stroke="black" points="0,-277 158,-277"/>
<text text-anchor="middle" x="79" y="-261.8" font-family="Times New Roman,serif" font-size="14.00">Init capacity: 2</text>
<polyline fill="none" stroke="black" points="0,-254 158,-254"/>
<text text-anchor="middle" x="79" y="-238.8" font-family="Times New Roman,serif" font-size="14.00">Capacity: 8</text>
<polyline fill="none" stroke="black" points="0,-231 158,-231"/>
<text text-anchor="middle" x="79" y="-215.8" font-family="Times New Roman,serif" font-size="14.00">Size: 5</text>
<polyline fill="none" stroke="black" points="0,-208 158,-208"/>
<text text-anchor="middle" x="79" y="-192.8" font-family="Times New Roman,serif" font-size="14.00">Head: 3</text>
<polyline fill="none" stroke="black" points="0,-185 158,-185"/>
<text text-anchor="middle" x="79" y="-169.8" font-family="Times New Roman,serif" font-size="14.00">Tail: 4</text>
<polyline fill="none" stroke="black" points="0,-162 158,-162"/>
<text text-anchor="middle" x="79" y="-146.8" font-family="Times New Roman,serif" font-size="14.00">Free: 1</text>
<polyline fill="none" stroke="black" points="0,-139 158,-139"/>
<text text-anchor="middle" x="79" y="-123.8" font-family="Times New Roman,serif" font-size="14.00">Last item: 5</text>
<polyline fill="none" stroke="black" points="0,-116 158,-116"/>
<text text-anchor="middle" x="79" y="-100.8" font-family="Times New Roman,serif" font-size="14.00">Poison: &#45;559038737</text>
</g>
<!-- Node1 -->
<g id="node2" class="node">
<title>Node1</title>
<polygon fill="#ffae5c" stroke="black" points="194,-150.5 194,-242.5 314,-242.5 314,-150.5 194,-150.5"/>
<text text-anchor="middle" x="254" y="-227.3" font-family="Times New Roman,serif" font-size="14.00">NUM: 1</text>
<polyline fill="none" stroke="black" points="194,-219.5 314,-219.5"/>
<text text-anchor="middle" x="254" y="-204.3" font-family="Times New Roman,serif" font-size="14.00">Value: &#45;559038737</text>
<polyline fill="none" stroke="black" points="194,-196.5 314,-196.5"/>
<text text-anchor="middle" x="254" y="-181.3" font-family="Times New Roman,serif" font-size="14.00">Next: 5</text>
<polyline fill="none" stroke="black" points="194,-173.5 314,-173.5"/>
<text text-anchor="middle" x="254" y="-158.3" font-family="Times New Roman,serif" font-size="14.00">Prev: &#45;1</text>
</g>
<!-- Node0&#45;&gt;Node1 -->
<!-- Node0&#45;&gt;Node1 -->
<g id="edge18" class="edge">
<title>Node0&#45;&gt;Node1</title>
<path fill="none" stroke="darkviolet" d="M158.05,-212C158.05,-212 188.92,-212 188.92,-212"/>
<polygon fill="darkviolet" stroke="darkviolet" points="188.92,-213.75 193.92,-212 188.92,-210.25 188.92,-213.75"/>
</g>
<!-- Node3 -->
<g id="node6" class="node">
<title>Node3</title>
<polygon fill="#00e6e6" stroke="black" points="691,-150.5 691,-242.5 753,-242.5 753,-150.5 691,-150.5"/>
<text text-anchor="middle" x="722" y="-227.3" font-family="Times New Roman,serif" font-size="14.00">NUM: 3</text>
<polyline fill="none" stroke="black" points="691,-219.5 753,-219.5"/>
<text text-anchor="middle" x="722" y="-204.3" font-family="Times New Roman,serif" font-size="14.00">Value: 1</text>
<polyline fill="none" stroke="black" points="691,-196.5 753,-196.5"/>
<text text-anchor="middle" x="722" y="-181.3" font-family="Times New Roman,serif" font-size="14.00">Next: 4</text>
<polyline fill="none" stroke="black" points="691,-173.5 753,-173.5"/>
<text text-anchor="middle" x="722" y="-158.3" font-family="Times New Roman,serif" font-size="14.00">Prev: 0</text>
</g>
<!-- Node0&#45;&gt;Node3 -->
<g id="edge17" class="edge">
<title>Node0&#45;&gt;Node3</title>
<path fill="none" stroke="darkorange" d="M158.17,-257.38C330.03,-257.38 722,-257.38 722,-257.38 722,-257.38 722,-247.64 722,-247.64"/>
<polygon fill="darkorange" stroke="darkorange" points="723.75,-247.64 722,-242.64 720.25,-247.64 723.75,-247.64"/>
</g>
<!-- Node5 -->
<g id="node3" class="node">
<title>Node5</title>
<polygon fill="#ffae5c" stroke="black" points="350,-75.5 350,-167.5 470,-167.5 470,-75.5 350,-75.5"/>
<text text-anchor="middle" x="410" y="-152.3" font-family="Times New Roman,serif" font-size="14.00">NUM: 5</text>
<polyline fill="none" stroke="black" points="350,-144.5 470,-144.5"/>
<text text-anchor="middle" x="410" y="-129.3" font-family="Times New Roman,serif" font-size="14.00">Value: &#45;559038737</text>
<polyline fill="none" stroke="black" points="350,-121.5 470,-121.5"/>
<text text-anchor="middle" x="410" y="-106.3" font-family="Times New Roman,serif" font-size="14.00">Next: 2</text>
<polyline fill="none" stroke="black" points="350,-98.5 470,-98.5"/>
<text text-anchor="middle" x="410" y="-83.3" font-family="Times New Roman,serif" font-size="14.00">Prev: &#45;1</text>
</g>
<!-- Node1&#45;&gt;Node5 -->
<g id="edge2" class="edge">
<title>Node1&#45;&gt;Node5</title>
<path fill="none" stroke="darkviolet" d="M314.31,-159C314.31,-159 344.85,-159 344.85,-159"/>
<polygon fill="darkviolet" stroke="darkviolet" points="344.85,-160.75 349.85,-159 344.85,-157.25 344.85,-160.75"/>
</g>
<!-- Node2 -->
<g id="node4" class="node">
<title>Node2</title>
<polygon fill="#ffae5c" stroke="black" points="506,-150.5 506,-242.5 626,-242.5 626,-150.5 506,-150.5"/>
<text text-anchor="middle" x="566" y="-227.3" font-family="Times New Roman,serif" font-size="14.00">NUM: 2</text>
<polyline fill="none" stroke="black" points="506,-219.5 626,-219.5"/>
<text text-anchor="middle" x="566" y="-204.3" font-family="Times New Roman,serif" font-size="14.00">Value: &#45;559038737</text>
<polyline fill="none" stroke="black" points="506,-196.5 626,-196.5"/>
<text text-anchor="middle" x="566" y="-181.3" font-family="Times New Roman,serif" font-size="14.00">Next: 6</text>
<polyline fill="none" stroke="black" points="506,-173.5 626,-173.5"/>
<text text-anchor="middle" x="566" y="-158.3" font-family="Times New Roman,serif" font-size="14.00">Prev: &#45;1</text>
</g>
<!-- Node1&#45;&gt;Node2 -->
<!-- Node5&#45;&gt;Node2 -->
<g id="edge10" class="edge">
<title>Node5&#45;&gt;Node2</title>
<path fill="none" stroke="darkviolet" d="M470.31,-159C470.31,-159 500.85,-159 500.85,-159"/>
<polygon fill="darkviolet" stroke="darkviolet" points="500.85,-160.75 505.85,-159 500.85,-157.25 500.85,-160.75"/>
</g>
<!-- Node6 -->
<g id="node5" class="node">
<title>Node6</title>
<polygon fill="#ffae5c" stroke="black" points="662,-0.5 662,-92.5 782,-92.5 782,-0.5 662,-0.5"/>
<text text-anchor="middle" x="722" y="-77.3" font-family="Times New Roman,serif" font-size="14.00">NUM: 6</text>
<polyline fill="none" stroke="black" points="662,-69.5 782,-69.5"/>
<text text-anchor="middle" x="722" y="-54.3" font-family="Times New Roman,serif" font-size="14.00">Value: &#45;559038737</text>
<polyline fill="none" stroke="black" points="662,-46.5 782,-46.5"/>
<text text-anchor="middle" x="722" y="-31.3" font-family="Times New Roman,serif" font-size="14.00">Next: 7</text>
<polyline fill="none" stroke="black" points="662,-23.5 782,-23.5"/>
<text text-anchor="middle" x="722" y="-8.3" font-family="Times New Roman,serif" font-size="14.00">Prev: &#45;1</text>
</g>
<!-- Node5&#45;&gt;Node6 -->
<!-- Node2&#45;&gt;Node6 -->
<g id="edge4" class="edge">
<title>Node2&#45;&gt;Node6</title>
<path fill="none" stroke="darkviolet" d="M626.05,-181C652.2,-181 677,-181 677,-181 677,-181 677,-97.79 677,-97.79"/>
<polygon fill="darkviolet" stroke="darkviolet" points="678.75,-97.79 677,-92.79 675.25,-97.79 678.75,-97.79"/>
</g>
<!-- Node2&#45;&gt;Node3 -->
<!-- Node7 -->
<g id="node8" class="node">
<title>Node7</title>
<polygon fill="#ffae5c" stroke="black" points="818,-0.5 818,-92.5 938,-92.5 938,-0.5 818,-0.5"/>
<text text-anchor="middle" x="878" y="-77.3" font-family="Times New Roman,serif" font-size="14.00">NUM: 7</text>
<polyline fill="none" stroke="black" points="818,-69.5 938,-69.5"/>
<text text-anchor="middle" x="878" y="-54.3" font-family="Times New Roman,serif" font-size="14.00">Value: &#45;559038737</text>
<polyline fill="none" stroke="black" points="818,-46.5 938,-46.5"/>
<text text-anchor="middle" x="878" y="-31.3" font-family="Times New Roman,serif" font-size="14.00">Next: 8</text>
<polyline fill="none" stroke="black" points="818,-23.5 938,-23.5"/>
<text text-anchor="middle" x="878" y="-8.3" font-family="Times New Roman,serif" font-size="14.00">Prev: &#45;1</text>
</g>
<!-- Node6&#45;&gt;Node7 -->
<g id="edge12" class="edge">
<title>Node6&#45;&gt;Node7</title>
<path fill="none" stroke="darkviolet" d="M782.31,-31C782.31,-31 812.85,-31 812.85,-31"/>
<polygon fill="darkviolet" stroke="darkviolet" points="812.85,-32.75 817.85,-31 812.85,-29.25 812.85,-32.75"/>
</g>
<!-- Node6&#45;&gt;Node7 -->
<!-- Node4 -->
<g id="node7" class="node">
<title>Node4</title>
<polygon fill="#00e6e6" stroke="black" points="847,-150.5 847,-242.5 909,-242.5 909,-150.5 847,-150.5"/>
<text text-anchor="middle" x="878" y="-227.3" font-family="Times New Roman,serif" font-size="14.00">NUM: 4</text>
<polyline fill="none" stroke="black" points="847,-219.5 909,-219.5"/>
<text text-anchor="middle" x="878" y="-204.3" font-family="Times New Roman,serif" font-size="14.00">Value: 4</text>
<polyline fill="none" stroke="black" points="847,-196.5 909,-196.5"/>
<text text-anchor="middle" x="878" y="-181.3" font-family="Times New Roman,serif" font-size="14.00">Next: 0</text>
<polyline fill="none" stroke="black" points="847,-173.5 909,-173.5"/>
<text text-anchor="middle" x="878" y="-158.3" font-family="Times New Roman,serif" font-size="14.00">Prev: 3</text>
</g>
<!-- Node3&#45;&gt;Node4 -->
<g id="edge6" class="edge">
<title>Node3&#45;&gt;Node4</title>
<path fill="none" stroke="darkorange" d="M753.19,-181C753.19,-181 841.86,-181 841.86,-181"/>
<polygon fill="darkorange" stroke="darkorange" points="841.86,-182.75 846.86,-181 841.86,-179.25 841.86,-182.75"/>
</g>
<!-- Node3&#45;&gt;Node4 -->
<!-- Node4&#45;&gt;Node0 -->
<g id="edge8" class="edge">
<title>Node4&#45;&gt;Node0</title>
<path fill="none" stroke="darkorange" d="M878,-242.87C878,-258.36 878,-271.75 878,-271.75 878,-271.75 163.16,-271.75 163.16,-271.75"/>
<polygon fill="darkorange" stroke="darkorange" points="163.16,-270 158.16,-271.75 163.16,-273.5 163.16,-270"/>
</g>
<!-- Node4&#45;&gt;Node5 -->
<!-- Node8 -->
<g id="node9" class="node">
<title>Node8</title>
<polygon fill="#ffae5c" stroke="black" points="974,-0.5 974,-92.5 1094,-92.5 1094,-0.5 974,-0.5"/>
<text text-anchor="middle" x="1034" y="-77.3" font-family="Times New Roman,serif" font-size="14.00">NUM: 8</text>
<polyline fill="none" stroke="black" points="974,-69.5 1094,-69.5"/>
<text text-anchor="middle" x="1034" y="-54.3" font-family="Times New Roman,serif" font-size="14.00">Value: &#45;559038737</text>
<polyline fill="none" stroke="black" points="974,-46.5 1094,-46.5"/>
<text text-anchor="middle" x="1034" y="-31.3" font-family="Times New Roman,serif" font-size="14.00">Next: 0</text>
<polyline fill="none" stroke="black" points="974,-23.5 1094,-23.5"/>
<text text-anchor="middle" x="1034" y="-8.3" font-family="Times New Roman,serif" font-size="14.00">Prev: &#45;1</text>
</g>
<!-- Node7&#45;&gt;Node8 -->
<g id="edge14" class="edge">
<title>Node7&#45;&gt;Node8</title>
<path fill="none" stroke="darkviolet" d="M938.31,-62C938.31,-62 968.85,-62 968.85,-62"/>
<polygon fill="darkviolet" stroke="darkviolet" points="968.85,-63.75 973.85,-62 968.85,-60.25 968.85,-63.75"/>
</g>
<!-- Node7&#45;&gt;Node8 -->
<!-- Node8&#45;&gt;Node0 -->
<g id="edge16" class="edge">
<title>Node8&#45;&gt;Node0</title>
<path fill="none" stroke="darkviolet" d="M1034,-92.7C1034,-162.33 1034,-286.12 1034,-286.12 1034,-286.12 163.37,-286.12 163.37,-286.12"/>
<polygon fill="darkviolet" stroke="darkviolet" points="163.37,-284.38 158.37,-286.12 163.37,-287.88 163.37,-284.38"/>
</g>
</g>
</svg>
