<?xml version="1.0" encoding="UTF-8" standalone="no"?>
<!DOCTYPE svg PUBLIC "-//W3C//DTD SVG 1.1//EN"
 "http://www.w3.org/Graphics/SVG/1.1/DTD/svg11.dtd">
<!-- Generated by graphviz version 5.0.1 (20220820.1526)
 -->
<!-- Pages: 1 -->
<svg width="1124pt" height="216pt"
 viewBox="0.00 0.00 1124.00 216.00" xmlns="http://www.w3.org/2000/svg" xmlns:xlink="http://www.w3.org/1999/xlink">
<g id="graph0" class="graph" transform="scale(1 1) rotate(0) translate(4 212)">
<polygon fill="white" stroke="none" points="-4,4 -4,-212 1120,-212 1120,4 -4,4"/>
<!-- Node0 -->
<g id="node1" class="node">
<title>Node0</title>
<polygon fill="lightgrey" stroke="black" points="0,-0.5 0,-207.5 158,-207.5 158,-0.5 0,-0.5"/>
<text text-anchor="middle" x="79" y="-192.3" font-family="Times New Roman,serif" font-size="14.00">List pointer: 0x0061FF00</text>
<polyline fill="none" stroke="black" points="0,-184.5 158,-184.5"/>
<text text-anchor="middle" x="79" y="-169.3" font-family="Times New Roman,serif" font-size="14.00">Init capacity: 2</text>
<polyline fill="none" stroke="black" points="0,-161.5 158,-161.5"/>
<text text-anchor="middle" x="79" y="-146.3" font-family="Times New Roman,serif" font-size="14.00">Capacity: 8</text>
<polyline fill="none" stroke="black" points="0,-138.5 158,-138.5"/>
<text text-anchor="middle" x="79" y="-123.3" font-family="Times New Roman,serif" font-size="14.00">Size: 5</text>
<polyline fill="none" stroke="black" points="0,-115.5 158,-115.5"/>
<text text-anchor="middle" x="79" y="-100.3" font-family="Times New Roman,serif" font-size="14.00">Head: 1</text>
<polyline fill="none" stroke="black" points="0,-92.5 158,-92.5"/>
<text text-anchor="middle" x="79" y="-77.3" font-family="Times New Roman,serif" font-size="14.00">Tail: 5</text>
<polyline fill="none" stroke="black" points="0,-69.5 158,-69.5"/>
<text text-anchor="middle" x="79" y="-54.3" font-family="Times New Roman,serif" font-size="14.00">Free: 6</text>
<polyline fill="none" stroke="black" points="0,-46.5 158,-46.5"/>
<text text-anchor="middle" x="79" y="-31.3" font-family="Times New Roman,serif" font-size="14.00">Last item: 5</text>
<polyline fill="none" stroke="black" points="0,-23.5 158,-23.5"/>
<text text-anchor="middle" x="79" y="-8.3" font-family="Times New Roman,serif" font-size="14.00">Poison: &#45;559038737</text>
</g>
<!-- Node1 -->
<g id="node2" class="node">
<title>Node1</title>
<polygon fill="#00e6e6" stroke="black" points="194,-58 194,-150 256,-150 256,-58 194,-58"/>
<text text-anchor="middle" x="225" y="-134.8" font-family="Times New Roman,serif" font-size="14.00">NUM: 1</text>
<polyline fill="none" stroke="black" points="194,-127 256,-127"/>
<text text-anchor="middle" x="225" y="-111.8" font-family="Times New Roman,serif" font-size="14.00">Value: 2</text>
<polyline fill="none" stroke="black" points="194,-104 256,-104"/>
<text text-anchor="middle" x="225" y="-88.8" font-family="Times New Roman,serif" font-size="14.00">Next: 2</text>
<polyline fill="none" stroke="black" points="194,-81 256,-81"/>
<text text-anchor="middle" x="225" y="-65.8" font-family="Times New Roman,serif" font-size="14.00">Prev: 0</text>
</g>
<!-- Node0&#45;&gt;Node1 -->
<!-- Node0&#45;&gt;Node1 -->
<g id="edge17" class="edge">
<title>Node0&#45;&gt;Node1</title>
<path fill="none" stroke="darkorange" d="M158.41,-119.5C158.41,-119.5 188.86,-119.5 188.86,-119.5"/>
<polygon fill="darkorange" stroke="darkorange" points="188.86,-121.25 193.86,-119.5 188.86,-117.75 188.86,-121.25"/>
</g>
<!-- Node6 -->
<g id="node7" class="node">
<title>Node6</title>
<polygon fill="#ffae5c" stroke="black" points="684,-58 684,-150 804,-150 804,-58 684,-58"/>
<text text-anchor="middle" x="744" y="-134.8" font-family="Times New Roman,serif" font-size="14.00">NUM: 6</text>
<polyline fill="none" stroke="black" points="684,-127 804,-127"/>
<text text-anchor="middle" x="744" y="-111.8" font-family="Times New Roman,serif" font-size="14.00">Value: &#45;559038737</text>
<polyline fill="none" stroke="black" points="684,-104 804,-104"/>
<text text-anchor="middle" x="744" y="-88.8" font-family="Times New Roman,serif" font-size="14.00">Next: 7</text>
<polyline fill="none" stroke="black" points="684,-81 804,-81"/>
<text text-anchor="middle" x="744" y="-65.8" font-family="Times New Roman,serif" font-size="14.00">Prev: &#45;1</text>
</g>
<!-- Node0&#45;&gt;Node6 -->
<g id="edge18" class="edge">
<title>Node0&#45;&gt;Node6</title>
<path fill="none" stroke="darkviolet" d="M158.22,-28.75C334.56,-28.75 744,-28.75 744,-28.75 744,-28.75 744,-52.63 744,-52.63"/>
<polygon fill="darkviolet" stroke="darkviolet" points="742.25,-52.63 744,-57.63 745.75,-52.63 742.25,-52.63"/>
</g>
<!-- Node2 -->
<g id="node3" class="node">
<title>Node2</title>
<polygon fill="#00e6e6" stroke="black" points="292,-58 292,-150 354,-150 354,-58 292,-58"/>
<text text-anchor="middle" x="323" y="-134.8" font-family="Times New Roman,serif" font-size="14.00">NUM: 2</text>
<polyline fill="none" stroke="black" points="292,-127 354,-127"/>
<text text-anchor="middle" x="323" y="-111.8" font-family="Times New Roman,serif" font-size="14.00">Value: 3</text>
<polyline fill="none" stroke="black" points="292,-104 354,-104"/>
<text text-anchor="middle" x="323" y="-88.8" font-family="Times New Roman,serif" font-size="14.00">Next: 3</text>
<polyline fill="none" stroke="black" points="292,-81 354,-81"/>
<text text-anchor="middle" x="323" y="-65.8" font-family="Times New Roman,serif" font-size="14.00">Prev: 1</text>
</g>
<!-- Node1&#45;&gt;Node2 -->
<g id="edge2" class="edge">
<title>Node1&#45;&gt;Node2</title>
<path fill="none" stroke="darkorange" d="M256.01,-88.5C256.01,-88.5 286.86,-88.5 286.86,-88.5"/>
<polygon fill="darkorange" stroke="darkorange" points="286.86,-90.25 291.86,-88.5 286.86,-86.75 286.86,-90.25"/>
</g>
<!-- Node1&#45;&gt;Node2 -->
<!-- Node3 -->
<g id="node4" class="node">
<title>Node3</title>
<polygon fill="#00e6e6" stroke="black" points="390,-58 390,-150 452,-150 452,-58 390,-58"/>
<text text-anchor="middle" x="421" y="-134.8" font-family="Times New Roman,serif" font-size="14.00">NUM: 3</text>
<polyline fill="none" stroke="black" points="390,-127 452,-127"/>
<text text-anchor="middle" x="421" y="-111.8" font-family="Times New Roman,serif" font-size="14.00">Value: 1</text>
<polyline fill="none" stroke="black" points="390,-104 452,-104"/>
<text text-anchor="middle" x="421" y="-88.8" font-family="Times New Roman,serif" font-size="14.00">Next: 4</text>
<polyline fill="none" stroke="black" points="390,-81 452,-81"/>
<text text-anchor="middle" x="421" y="-65.8" font-family="Times New Roman,serif" font-size="14.00">Prev: 2</text>
</g>
<!-- Node2&#45;&gt;Node3 -->
<g id="edge4" class="edge">
<title>Node2&#45;&gt;Node3</title>
<path fill="none" stroke="darkorange" d="M354.01,-88.5C354.01,-88.5 384.86,-88.5 384.86,-88.5"/>
<polygon fill="darkorange" stroke="darkorange" points="384.86,-90.25 389.86,-88.5 384.86,-86.75 384.86,-90.25"/>
</g>
<!-- Node2&#45;&gt;Node3 -->
<!-- Node4 -->
<g id="node5" class="node">
<title>Node4</title>
<polygon fill="#00e6e6" stroke="black" points="488,-58 488,-150 550,-150 550,-58 488,-58"/>
<text text-anchor="middle" x="519" y="-134.8" font-family="Times New Roman,serif" font-size="14.00">NUM: 4</text>
<polyline fill="none" stroke="black" points="488,-127 550,-127"/>
<text text-anchor="middle" x="519" y="-111.8" font-family="Times New Roman,serif" font-size="14.00">Value: 4</text>
<polyline fill="none" stroke="black" points="488,-104 550,-104"/>
<text text-anchor="middle" x="519" y="-88.8" font-family="Times New Roman,serif" font-size="14.00">Next: 5</text>
<polyline fill="none" stroke="black" points="488,-81 550,-81"/>
<text text-anchor="middle" x="519" y="-65.8" font-family="Times New Roman,serif" font-size="14.00">Prev: 3</text>
</g>
<!-- Node3&#45;&gt;Node4 -->
<g id="edge6" class="edge">
<title>Node3&#45;&gt;Node4</title>
<path fill="none" stroke="darkorange" d="M452.01,-119.5C452.01,-119.5 482.86,-119.5 482.86,-119.5"/>
<polygon fill="darkorange" stroke="darkorange" points="482.86,-121.25 487.86,-119.5 482.86,-117.75 482.86,-121.25"/>
</g>
<!-- Node3&#45;&gt;Node4 -->
<!-- Node5 -->
<g id="node6" class="node">
<title>Node5</title>
<polygon fill="#00e6e6" stroke="black" points="586,-58 586,-150 648,-150 648,-58 586,-58"/>
<text text-anchor="middle" x="617" y="-134.8" font-family="Times New Roman,serif" font-size="14.00">NUM: 5</text>
<polyline fill="none" stroke="black" points="586,-127 648,-127"/>
<text text-anchor="middle" x="617" y="-111.8" font-family="Times New Roman,serif" font-size="14.00">Value: 5</text>
<polyline fill="none" stroke="black" points="586,-104 648,-104"/>
<text text-anchor="middle" x="617" y="-88.8" font-family="Times New Roman,serif" font-size="14.00">Next: 0</text>
<polyline fill="none" stroke="black" points="586,-81 648,-81"/>
<text text-anchor="middle" x="617" y="-65.8" font-family="Times New Roman,serif" font-size="14.00">Prev: 4</text>
</g>
<!-- Node4&#45;&gt;Node5 -->
<g id="edge8" class="edge">
<title>Node4&#45;&gt;Node5</title>
<path fill="none" stroke="darkorange" d="M550.01,-88.5C550.01,-88.5 580.86,-88.5 580.86,-88.5"/>
<polygon fill="darkorange" stroke="darkorange" points="580.86,-90.25 585.86,-88.5 580.86,-86.75 580.86,-90.25"/>
</g>
<!-- Node4&#45;&gt;Node5 -->
<!-- Node5&#45;&gt;Node0 -->
<g id="edge10" class="edge">
<title>Node5&#45;&gt;Node0</title>
<path fill="none" stroke="darkorange" d="M617,-57.86C617,-49.37 617,-43.12 617,-43.12 617,-43.12 163.09,-43.12 163.09,-43.12"/>
<polygon fill="darkorange" stroke="darkorange" points="163.09,-41.38 158.09,-43.12 163.09,-44.88 163.09,-41.38"/>
</g>
<!-- Node5&#45;&gt;Node6 -->
<!-- Node7 -->
<g id="node8" class="node">
<title>Node7</title>
<polygon fill="#ffae5c" stroke="black" points="840,-58 840,-150 960,-150 960,-58 840,-58"/>
<text text-anchor="middle" x="900" y="-134.8" font-family="Times New Roman,serif" font-size="14.00">NUM: 7</text>
<polyline fill="none" stroke="black" points="840,-127 960,-127"/>
<text text-anchor="middle" x="900" y="-111.8" font-family="Times New Roman,serif" font-size="14.00">Value: &#45;559038737</text>
<polyline fill="none" stroke="black" points="840,-104 960,-104"/>
<text text-anchor="middle" x="900" y="-88.8" font-family="Times New Roman,serif" font-size="14.00">Next: 8</text>
<polyline fill="none" stroke="black" points="840,-81 960,-81"/>
<text text-anchor="middle" x="900" y="-65.8" font-family="Times New Roman,serif" font-size="14.00">Prev: &#45;1</text>
</g>
<!-- Node6&#45;&gt;Node7 -->
<g id="edge12" class="edge">
<title>Node6&#45;&gt;Node7</title>
<path fill="none" stroke="darkviolet" d="M804.31,-88.5C804.31,-88.5 834.85,-88.5 834.85,-88.5"/>
<polygon fill="darkviolet" stroke="darkviolet" points="834.85,-90.25 839.85,-88.5 834.85,-86.75 834.85,-90.25"/>
</g>
<!-- Node6&#45;&gt;Node7 -->
<!-- Node8 -->
<g id="node9" class="node">
<title>Node8</title>
<polygon fill="#ffae5c" stroke="black" points="996,-58 996,-150 1116,-150 1116,-58 996,-58"/>
<text text-anchor="middle" x="1056" y="-134.8" font-family="Times New Roman,serif" font-size="14.00">NUM: 8</text>
<polyline fill="none" stroke="black" points="996,-127 1116,-127"/>
<text text-anchor="middle" x="1056" y="-111.8" font-family="Times New Roman,serif" font-size="14.00">Value: &#45;559038737</text>
<polyline fill="none" stroke="black" points="996,-104 1116,-104"/>
<text text-anchor="middle" x="1056" y="-88.8" font-family="Times New Roman,serif" font-size="14.00">Next: 0</text>
<polyline fill="none" stroke="black" points="996,-81 1116,-81"/>
<text text-anchor="middle" x="1056" y="-65.8" font-family="Times New Roman,serif" font-size="14.00">Prev: &#45;1</text>
</g>
<!-- Node7&#45;&gt;Node8 -->
<g id="edge14" class="edge">
<title>Node7&#45;&gt;Node8</title>
<path fill="none" stroke="darkviolet" d="M960.31,-119.5C960.31,-119.5 990.85,-119.5 990.85,-119.5"/>
<polygon fill="darkviolet" stroke="darkviolet" points="990.85,-121.25 995.85,-119.5 990.85,-117.75 990.85,-121.25"/>
</g>
<!-- Node7&#45;&gt;Node8 -->
<!-- Node8&#45;&gt;Node0 -->
<g id="edge16" class="edge">
<title>Node8&#45;&gt;Node0</title>
<path fill="none" stroke="darkviolet" d="M1056,-57.87C1056,-35.91 1056,-14.38 1056,-14.38 1056,-14.38 163.12,-14.38 163.12,-14.38"/>
<polygon fill="darkviolet" stroke="darkviolet" points="163.12,-12.63 158.12,-14.38 163.12,-16.13 163.12,-12.63"/>
</g>
</g>
</svg>
